<?xml version="1.0" encoding="UTF-8" standalone="no"?>
<!-- Created with Inkscape (http://www.inkscape.org/) -->

<svg
   width="29.137165mm"
   height="11.707386mm"
   viewBox="0 0 29.137165 11.707386"
   version="1.1"
   id="svg1"
   xml:space="preserve"
   inkscape:version="1.4 (86a8ad7, 2024-10-11)"
   sodipodi:docname="绘图.svg"
   xmlns:inkscape="http://www.inkscape.org/namespaces/inkscape"
   xmlns:sodipodi="http://sodipodi.sourceforge.net/DTD/sodipodi-0.dtd"
   xmlns="http://www.w3.org/2000/svg"
   xmlns:svg="http://www.w3.org/2000/svg"><sodipodi:namedview
     id="namedview1"
     bordercolor="currentColor"
     borderopacity="0.1"
     inkscape:showpageshadow="2"
     inkscape:pageopacity="0.0"
     inkscape:pagecheckerboard="0"
     inkscape:deskcolor="currentColor"
     inkscape:document-units="mm"
     inkscape:zoom="0.82"
     inkscape:cx="204.87805"
     inkscape:cy="366.46341"
     inkscape:window-width="1402"
     inkscape:window-height="1236"
     inkscape:window-x="1874"
     inkscape:window-y="548"
     inkscape:window-maximized="0"
     inkscape:current-layer="layer1"><inkscape:page
       x="0"
       y="-5.0378245e-13"
       width="29.137165"
       height="11.707385"
       id="page2"
       margin="0"
       bleed="0" /></sodipodi:namedview><defs
     id="defs1" /><g
     inkscape:label="图层 1"
     inkscape:groupmode="layer"
     id="layer1"
     transform="translate(-68.475013,-77.179485)"><path
       fill="currentColor"
       d="m 76.5394,88.871527 -0.18021,-0.006 v -0.39229 -0.39229 h -0.33856 -0.33856 v 0.39317 0.39317 H 75.4418 75.20152 v -0.972 -0.97201 h 0.24028 0.24027 v 0.38225 0.38225 h 0.33856 0.33856 v -0.38225 -0.38225 h 0.24028 0.24027 v 0.96953 0.96952 l -0.0601,0.008 c -0.033,0.004 -0.14116,0.005 -0.24027,0.002 z m 1.67379,-0.018 c -0.21834,-0.0754 -0.44236,-0.31262 -0.51241,-0.54253 -0.048,-0.15763 -0.0635,-0.47451 -0.0323,-0.65975 0.053,-0.31436 0.22811,-0.56404 0.47752,-0.68095 0.11121,-0.0521 0.14996,-0.0583 0.3647,-0.0583 0.22721,0 0.24744,0.004 0.37213,0.069 0.33943,0.1775 0.52671,0.59063 0.47826,1.05504 -0.0404,0.38748 -0.19449,0.63549 -0.48998,0.78873 -0.12923,0.067 -0.50029,0.0833 -0.65794,0.0288 z m 0.4736,-0.40246 c 0.0411,-0.0254 0.0938,-0.0887 0.12271,-0.14743 0.0455,-0.0923 0.0507,-0.13347 0.0507,-0.39781 0,-0.27116 -0.004,-0.30358 -0.0546,-0.40296 -0.0688,-0.13623 -0.14317,-0.19046 -0.27687,-0.20198 -0.21239,-0.0183 -0.33741,0.11428 -0.3763,0.39909 -0.0227,0.16622 -0.0132,0.38697 0.0226,0.52257 0.0273,0.10352 0.11401,0.22487 0.17966,0.25136 0.0884,0.0357 0.2561,0.0242 0.33214,-0.0228 z m 1.98637,0.41837 c -0.22709,-0.0591 -0.42683,-0.25588 -0.47934,-0.47215 -0.009,-0.036 -0.0154,-0.38006 -0.0148,-0.7645 l 0.001,-0.69897 0.24107,-0.006 0.24106,-0.006 9e-5,0.70515 c 7e-5,0.66067 0.003,0.70955 0.0427,0.77502 0.10459,0.17154 0.43255,0.13803 0.50463,-0.0516 0.0113,-0.0297 0.0205,-0.36292 0.0205,-0.74056 v -0.68663 h 0.24027 0.24028 v 0.70593 c 0,0.8214 -0.008,0.87288 -0.16626,1.04184 -0.14673,0.15686 -0.27261,0.20369 -0.56548,0.21036 -0.13215,0.003 -0.26976,-0.002 -0.3058,-0.0116 z m 2.38086,-0.001 c -0.29189,-0.071 -0.49873,-0.27602 -0.52803,-0.52343 l -0.0132,-0.11145 h 0.23912 0.23912 l 0.0206,0.0923 c 0.0297,0.13317 0.12385,0.19162 0.30875,0.19162 0.11925,0 0.14761,-0.008 0.19336,-0.0536 0.0316,-0.0316 0.0536,-0.0789 0.0536,-0.11527 0,-0.12195 -0.0543,-0.15974 -0.44778,-0.31182 -0.33251,-0.1285 -0.49781,-0.27988 -0.53748,-0.4922 -0.0448,-0.23987 0.0804,-0.45271 0.33416,-0.56781 0.1762,-0.0799 0.48784,-0.10082 0.67828,-0.0454 0.25124,0.073 0.45336,0.28953 0.45336,0.4856 v 0.0739 H 83.81034 83.5728 l -0.0129,-0.0645 c -0.018,-0.09 -0.1013,-0.13777 -0.24389,-0.13983 -0.16147,-0.002 -0.24013,0.0544 -0.24013,0.17326 0,0.0756 0.009,0.0895 0.0874,0.1338 0.0481,0.0272 0.15127,0.0707 0.22935,0.0966 0.45789,0.15191 0.65585,0.34963 0.65481,0.65403 -8.5e-4,0.2481 -0.11573,0.40771 -0.35896,0.49871 -0.0975,0.0365 -0.16867,0.0455 -0.34581,0.0437 -0.12269,-10e-4 -0.25256,-0.009 -0.2886,-0.0182 z m 2.13514,0.003 -0.3331,-0.006 v -0.97145 -0.97145 h 0.67713 0.67713 v 0.19658 0.19659 h -0.42594 -0.42594 v 0.18566 0.18567 h 0.36041 0.36041 v 0.18566 0.18567 h -0.36041 -0.36041 v 0.2075 0.20751 h 0.42594 0.42594 v 0.19552 0.19552 l -0.34403,0.007 c -0.18921,0.004 -0.49392,0.004 -0.67713,5.2e-4 z m 2.2303,-0.0274 c -0.2225,-0.0878 -0.38377,-0.28543 -0.45536,-0.55797 -0.0505,-0.19211 -0.0465,-0.61727 0.007,-0.79039 0.12287,-0.39478 0.38385,-0.59499 0.77559,-0.59499 0.31429,0 0.54324,0.10571 0.68153,0.31467 0.0693,0.10474 0.14707,0.33191 0.12592,0.36792 -0.005,0.009 -0.1098,0.0163 -0.23223,0.0163 l -0.2226,-1.1e-4 -0.0328,-0.10204 c -0.042,-0.13078 -0.11682,-0.18603 -0.26911,-0.19865 -0.15611,-0.013 -0.25338,0.0336 -0.32252,0.15427 -0.0499,0.0871 -0.0527,0.11143 -0.0527,0.45245 0,0.39443 0.0138,0.44985 0.13608,0.5462 0.0522,0.0411 0.0821,0.0466 0.21748,0.0398 0.1819,-0.009 0.25248,-0.0563 0.29462,-0.19698 l 0.0249,-0.0832 h 0.22225 c 0.12224,0 0.22778,0.006 0.23453,0.0123 0.0214,0.0214 -0.0397,0.24105 -0.0893,0.32136 -0.0667,0.10786 -0.20652,0.22902 -0.32698,0.28327 -0.15274,0.0688 -0.55984,0.0778 -0.71672,0.0159 z m 3.99852,0.0243 c -0.005,-0.005 -0.009,-0.44486 -0.009,-0.97746 v -0.96837 h 0.66621 0.6662 v 0.19658 0.19659 h -0.42593 -0.42594 v 0.18566 0.18567 h 0.36041 0.36041 v 0.18512 0.18512 l -0.35495,0.006 -0.35495,0.006 -0.006,0.20204 -0.006,0.20205 h 0.42676 0.42675 v 0.19596 0.19596 l -0.65713,0.006 c -0.36142,0.003 -0.66121,0.002 -0.6662,-0.003 z m 5.80857,0.003 -0.11268,-0.007 -0.31068,-0.5455 c -0.17088,-0.30002 -0.31921,-0.55076 -0.32964,-0.55721 -0.0105,-0.007 -0.019,0.23662 -0.019,0.54657 v 0.55828 h -0.24027 -0.24027 v -0.972 -0.97201 h 0.23726 0.23725 l 0.31513,0.54999 c 0.17331,0.3025 0.32702,0.55396 0.34158,0.55882 0.0202,0.007 0.0264,-0.12219 0.0264,-0.55 v -0.55881 h 0.24027 0.24028 v 0.97014 0.97014 l -0.13652,0.007 c -0.0751,0.004 -0.18723,0.004 -0.2492,7.9e-4 z m -28.728451,-0.0645 c 0.0127,-0.033 0.120198,-0.32545 0.238887,-0.64982 0.118689,-0.32437 0.268066,-0.73228 0.331954,-0.90648 l 0.11615,-0.31672 0.22871,-0.006 0.22872,-0.006 0.3474,0.94523 c 0.19107,0.51987 0.35185,0.95751 0.35729,0.97253 0.008,0.0209 -0.0513,0.0273 -0.24961,0.0273 h -0.2595 l -0.0434,-0.15836 -0.0434,-0.15836 h -0.32744 -0.32744 l -0.0543,0.15836 -0.05429,0.15836 h -0.25638 -0.256435 z m 1.101731,-0.72081 c -0.0484,-0.19809 -0.1706,-0.55053 -0.18735,-0.54018 -0.0109,0.007 -0.0406,0.0831 -0.0661,0.16973 -0.0255,0.0866 -0.0651,0.21562 -0.088,0.28669 -0.023,0.0711 -0.0418,0.13249 -0.0418,0.13651 0,0.004 0.0895,0.007 0.19895,0.007 h 0.19896 z m 1.4734,-0.19112 v -0.97201 h 0.24027 0.24027 v 0.77542 0.77542 h 0.40409 0.40409 v 0.19659 0.19658 h -0.64436 -0.64436 z m 2.07507,0 v -0.97201 h 0.24027 0.24027 v 0.77493 0.77493 l 0.39863,0.006 0.39863,0.006 0.006,0.19113 0.006,0.19112 H 73.79291 73.1477 Z m 16.20086,0.005 0.004,-0.96655 0.23041,-0.006 0.2304,-0.006 0.001,0.48674 c 7.7e-4,0.26771 0.003,0.61453 0.005,0.7707 l 0.004,0.28396 0.40409,0.0109 0.40409,0.0109 0.006,0.19113 0.006,0.19112 H 89.99348 89.3428 Z m 4.03061,0.93995 c 0.006,-0.0154 0.16568,-0.45345 0.35567,-0.97342 l 0.34544,-0.94541 0.22778,0.006 0.22778,0.006 0.10928,0.29488 c 0.0984,0.26552 0.37963,1.02755 0.54214,1.46893 l 0.0623,0.16928 h -0.25545 -0.25545 l -0.0543,-0.15836 -0.0543,-0.15836 h -0.32692 -0.32691 l -0.0459,0.1529 -0.0459,0.1529 -0.25783,0.006 c -0.20251,0.005 -0.25563,1.6e-4 -0.24759,-0.0219 z m 1.13081,-0.70013 c 0,-0.003 -0.0343,-0.11383 -0.0763,-0.24573 -0.0419,-0.13191 -0.0764,-0.25023 -0.0764,-0.26295 -9e-5,-0.0127 -0.0138,-0.0418 -0.0306,-0.0647 -0.0275,-0.0376 -0.0388,-0.0146 -0.12013,0.24403 -0.0494,0.15707 -0.0898,0.29675 -0.0898,0.31041 0,0.0167 0.0643,0.0248 0.19659,0.0248 0.10812,0 0.19658,-0.003 0.19658,-0.006 z m -5.50503,-3.00963 c -0.11212,-0.0177 -0.36105,-0.15112 -0.8804,-0.4719 -0.27383,-0.16914 -0.37781,-0.36811 -0.35931,-0.6876 0.009,-0.15057 0.0227,-0.19794 0.11067,-0.37409 0.1036,-0.20751 0.38216,-0.67917 0.55378,-0.93766 0.16934,-0.25504 0.44486,-0.40219 0.72043,-0.38476 0.15343,0.01 0.20098,0.032 0.69969,0.32746 0.37404,0.22163 0.47198,0.30329 0.5352,0.4462 0.11058,0.25 0.0967,0.49699 -0.0433,0.77099 -0.1177,0.2303 -0.53791,0.9291 -0.62048,1.03185 -0.15869,0.19747 -0.46893,0.31854 -0.71624,0.27951 z m 0.37715,-0.15716 c 0.0643,-0.0294 0.15302,-0.0852 0.19711,-0.12392 0.0761,-0.0668 0.36562,-0.50023 0.36562,-0.54735 0,-0.0122 -0.0398,-0.0222 -0.0885,-0.0222 -0.16511,0 -0.3101,-0.12195 -0.33745,-0.28381 -0.0118,-0.07 -0.004,-0.11027 0.0362,-0.19075 0.0638,-0.12718 0.13814,-0.18236 0.26496,-0.19665 0.12761,-0.0144 0.2537,0.0531 0.32018,0.1714 0.0262,0.0466 0.0525,0.0848 0.0583,0.0848 0.006,0 0.0421,-0.0663 0.0805,-0.14744 0.0606,-0.12795 0.0698,-0.17073 0.0698,-0.32372 0,-0.32571 -0.1344,-0.49027 -0.5736,-0.70236 -0.14097,-0.0681 -0.17386,-0.0756 -0.29622,-0.0678 -0.16619,0.0106 -0.3551,0.0986 -0.45943,0.21411 -0.13194,0.14603 -0.63534,0.99264 -0.70424,1.18434 -0.0417,0.11607 -0.0457,0.34675 -0.008,0.47104 0.0527,0.1744 0.23464,0.32704 0.59471,0.49904 0.14182,0.0677 0.30514,0.0614 0.48004,-0.0187 z m -0.22558,-0.28628 c -0.0286,-0.0142 -0.0617,-0.0537 -0.0737,-0.0878 -0.0191,-0.0545 -0.0143,-0.0683 0.04,-0.115 0.0911,-0.0784 0.21038,-0.0341 0.21038,0.078 0,0.10858 -0.0866,0.16969 -0.17671,0.12475 z m -0.35527,-0.64763 c -0.12269,-0.10771 -0.12545,-0.23625 -0.008,-0.36538 0.0908,-0.0997 0.27455,-0.0832 0.36584,0.0329 0.0532,0.0676 0.057,0.21557 0.007,0.28643 -0.0404,0.0576 -0.15468,0.11176 -0.23595,0.11176 -0.03,0 -0.0882,-0.0296 -0.12936,-0.0657 z m 0.45423,-0.79604 c -0.0426,-0.065 -0.0256,-0.13153 0.0455,-0.17814 0.0782,-0.0512 0.17177,-0.001 0.1812,0.0967 0.009,0.0936 -0.0273,0.13494 -0.11834,0.13494 -0.0537,0 -0.0827,-0.0143 -0.10835,-0.0535 z m -13.35629,1.70267 c 0.58547,-0.98371 1.69965,-1.87769 3.12462,-2.50707 2.47545,-1.09335 5.86252,-1.2052 8.49148,-0.28041 0.16841,0.0592 0.33097,0.12394 0.36123,0.14377 0.0776,0.0509 0.13186,0.17509 0.11684,0.26764 -0.0143,0.0885 -0.28096,0.55841 -0.36501,0.64342 -0.0873,0.0883 -0.18378,0.097 -0.36159,0.0328 -0.83273,-0.30091 -1.17551,-0.40603 -1.71754,-0.52671 -0.49967,-0.11125 -1.15959,-0.21129 -1.58932,-0.24093 -0.0901,-0.006 -0.24245,-0.0167 -0.33856,-0.0233 -0.29106,-0.02 -1.33569,-0.0125 -1.63821,0.0118 -1.01851,0.0817 -1.92803,0.26395 -2.83097,0.56722 -1.21358,0.40759 -2.28818,1.03137 -3.06606,1.77976 -0.23182,0.22303 -0.24779,0.23432 -0.18691,0.13202 z m 0.0924,-0.97637 c -0.0343,-0.0344 -0.0334,-0.10853 0.002,-0.157 0.0199,-0.0271 0.0507,-0.0365 0.10376,-0.0315 0.0678,0.006 0.0762,0.0146 0.0824,0.0796 0.004,0.0398 -0.005,0.0865 -0.0191,0.10375 -0.0316,0.0381 -0.13315,0.0412 -0.16919,0.005 z m 10.97166,-0.15212 c -0.43169,-0.1854 -1.23917,-0.40915 -1.88583,-0.52257 -0.19727,-0.0346 -0.37216,-0.0741 -0.38863,-0.0878 -0.0411,-0.0341 -0.0376,-0.11793 0.007,-0.16224 0.0424,-0.0424 0.0883,-0.0385 0.55313,0.0465 0.61555,0.11267 1.57703,0.39174 1.89823,0.55097 0.14416,0.0715 0.17303,0.11078 0.1379,0.18787 -0.0346,0.0759 -0.12317,0.0724 -0.32147,-0.0128 z m -10.6877,-0.17503 c -0.0785,-0.0785 0.005,-0.1945 0.38564,-0.53431 0.41779,-0.37317 0.86043,-0.67327 1.36253,-0.92377 0.4778,-0.23838 0.63486,-0.27716 0.66331,-0.1638 0.0236,0.0941 -0.008,0.13331 -0.15027,0.1848 -0.16894,0.0613 -0.6059,0.27836 -0.82395,0.40938 -0.39813,0.23924 -0.72282,0.49043 -1.07221,0.82949 -0.23327,0.22637 -0.30043,0.26284 -0.36505,0.19821 z m 7.93197,-0.47614 c -0.0987,-0.0398 -0.0808,-0.18283 0.0262,-0.20969 0.12781,-0.0321 0.21862,0.12456 0.11448,0.1975 -0.0543,0.038 -0.0727,0.0396 -0.14066,0.0122 z m 3.79166,-1.21957 c -0.11501,-0.0561 -0.31159,-0.13878 -0.43685,-0.1838 -0.30551,-0.10979 -0.33568,-0.12699 -0.34374,-0.19597 -0.005,-0.042 0.008,-0.0677 0.0468,-0.0931 0.051,-0.0334 0.0668,-0.0303 0.32528,0.0634 0.14944,0.0542 0.37902,0.14683 0.51018,0.20592 0.18792,0.0846 0.24281,0.11942 0.25886,0.16394 0.0159,0.044 0.0115,0.0663 -0.0198,0.10086 -0.0568,0.0627 -0.10401,0.0542 -0.34076,-0.0612 z m -9.02498,-0.7825 0.005,-0.866225 0.0921,-0.12217 c 0.25834,-0.34278 1.11327,-1.40023 1.15659,-1.43058 0.043,-0.0301 0.13928,-0.0349 0.69619,-0.0349 h 0.64634 l 0.0556,-0.0601 c 0.0306,-0.033 0.28864,-0.35494 0.57349,-0.71535 0.39605,-0.50111 0.53927,-0.66703 0.60872,-0.70522 l 0.0908,-0.0499 1.03806,0.006 c 0.87853,0.005 1.04575,0.0113 1.08805,0.039 0.0581,0.0381 1.1601,1.4211 1.22018,1.53133 0.0378,0.0694 0.0408,0.15726 0.0467,1.36831 0.004,0.82778 -0.001,1.294175 -0.0149,1.294175 -0.0117,0 -0.0882,-0.014 -0.1701,-0.0312 -0.45117,-0.0945 -1.57987,-0.22819 -1.94544,-0.2305 l -0.071,-4.5e-4 v -1.187295 -1.1873 l -0.50366,-0.63112 c -0.27701,-0.34711 -0.51102,-0.63376 -0.52002,-0.63699 -0.0254,-0.009 -0.94472,1.15268 -0.93041,1.17583 0.007,0.0113 0.0743,0.0205 0.14971,0.0205 0.12389,0 0.14461,0.007 0.21586,0.071 0.0725,0.0653 1.05097,1.28608 1.16666,1.4556 0.0485,0.0711 0.0505,0.091 0.0505,0.49392 v 0.419875 l -0.54061,0.0137 c -0.29733,0.008 -0.59467,0.0191 -0.66074,0.0257 -0.17128,0.017 -0.8037,0.0953 -0.90102,0.11154 l -0.0819,0.0137 -0.001,-0.13938 c -7.7e-4,-0.0767 -2e-4,-0.302735 0.001,-0.502405 l 0.003,-0.36303 -0.45267,-0.5713 c -0.24897,-0.31422 -0.48299,-0.60591 -0.52004,-0.6482 l -0.0674,-0.0769 -0.55151,0.69451 -0.55151,0.69451 -2e-5,0.734085 -2e-5,0.73408 -0.19195,0.0796 c -0.10557,0.0438 -0.2014,0.0796 -0.21296,0.0796 -0.0132,1e-5 -0.019,-0.32212 -0.0156,-0.86622 z m -1.87397,0.70652 c -0.028,-0.0383 -0.0696,-0.0831 -0.0923,-0.0995 -0.0399,-0.0287 -0.039,-0.0324 0.0226,-0.0983 0.0352,-0.0376 0.0803,-0.0928 0.10013,-0.12247 0.0198,-0.0297 0.0361,-0.0434 0.0361,-0.0304 0,0.013 0.0381,0.0669 0.0847,0.11982 l 0.0847,0.0962 -0.0925,0.10214 -0.0925,0.10213 z m 3.09606,-0.2692 c -0.008,-0.008 -0.0152,-0.22985 -0.0152,-0.49215 v -0.476895 h 0.31672 0.31672 v 0.412305 0.41231 l -0.26897,0.0674 c -0.14793,0.037 -0.28359,0.073 -0.30148,0.0798 -0.0179,0.007 -0.0394,0.006 -0.0478,-0.003 z m 6.6678,-0.0698 c -0.097,-0.0786 0.005,-0.23409 0.11555,-0.17592 0.0927,0.0488 0.10523,0.10523 0.0382,0.17224 -0.0542,0.0542 -0.0904,0.055 -0.15378,0.004 z m -8.76264,-0.1737 c -0.0669,-0.11791 -0.15728,-0.22121 -0.24236,-0.27695 l -0.0587,-0.0385 0.0746,-0.0592 c 0.0953,-0.07569 0.1733,-0.168705 0.23986,-0.285875 l 0.0528,-0.0929 0.0484,0.0949 c 0.0266,0.0522 0.1048,0.15128 0.17374,0.22021 l 0.12533,0.125335 -0.08,0.0643 c -0.044,0.0354 -0.1185,0.12193 -0.16554,0.19238 -0.047,0.0704 -0.0909,0.13511 -0.0975,0.14372 -0.007,0.009 -0.0383,-0.0307 -0.0705,-0.0874 z m 10.2373,-0.15877 c -0.019,-0.0367 -0.0733,-0.10433 -0.12072,-0.15037 l -0.0863,-0.0837 0.0525,-0.03439 c 0.0289,-0.0189 0.0846,-0.0839 0.12384,-0.14451 0.0392,-0.0606 0.073,-0.11011 0.0749,-0.11011 0.002,0 0.0357,0.0496 0.0749,0.11011 0.0392,0.0606 0.095,0.1256 0.12384,0.14451 l 0.0525,0.03439 -0.0863,0.0837 c -0.0474,0.046 -0.10176,0.11371 -0.12072,0.15037 -0.019,0.0367 -0.0389,0.0667 -0.0443,0.0667 -0.005,0 -0.0253,-0.03 -0.0443,-0.0667 z m -1.14221,-0.655605 c -0.073,-0.13293 -0.21787,-0.29942 -0.29881,-0.34348 -0.0407,-0.0222 -0.0356,-0.031 0.0765,-0.13121 0.0661,-0.0591 0.15829,-0.17271 0.20492,-0.25249 0.0466,-0.0798 0.0877,-0.14506 0.0912,-0.14506 0.004,0 0.0365,0.0524 0.0731,0.11655 0.0798,0.13954 0.21675,0.29924 0.29029,0.33859 l 0.0532,0.0285 -0.1546,0.15681 c -0.085,0.0863 -0.17729,0.20351 -0.20503,0.26057 -0.0277,0.0571 -0.0522,0.10364 -0.0544,0.1035 -0.002,-1.4e-4 -0.0366,-0.0597 -0.0764,-0.13227 z"
       id="path1" /></g></svg>
