<?xml version="1.0" encoding="UTF-8" standalone="no"?>
<!-- Created with Inkscape (http://www.inkscape.org/) -->

<svg
   version="1.1"
   id="svg1"
   width="76.665039"
   height="41.636337"
   viewBox="0 0 76.665039 41.636337"
   sodipodi:docname="Logo图1.png"
   inkscape:export-filename="Logo图2.svg"
   inkscape:export-xdpi="96"
   inkscape:export-ydpi="96"
   xmlns:inkscape="http://www.inkscape.org/namespaces/inkscape"
   xmlns:sodipodi="http://sodipodi.sourceforge.net/DTD/sodipodi-0.dtd"
   xmlns="http://www.w3.org/2000/svg"
   xmlns:svg="http://www.w3.org/2000/svg">
  <defs
     id="defs1" />
  <sodipodi:namedview
     id="namedview1"
     bordercolor="#078dae"
     borderopacity="0.1"
     inkscape:showpageshadow="2"
     inkscape:pageopacity="0.0"
     inkscape:pagecheckerboard="0"
     inkscape:deskcolor="#078dae">
    <inkscape:page
       x="0"
       y="0"
       width="76.665039"
       height="41.636337"
       id="page2"
       margin="0"
       bleed="0" />
  </sodipodi:namedview>
  <g
     inkscape:groupmode="layer"
     inkscape:label="Image"
     id="g1"
     transform="translate(-615.28101,-200)">
    <path
       fill="#078dae"
       d="m 684.11832,241.57518 c -0.34471,-0.0883 -1.17315,-0.50957 -1.96977,-1.00174 -0.51563,-0.31856 -0.83238,-0.50672 -2.04031,-1.21199 -1.06408,-0.62128 -1.3417,-0.84532 -1.68108,-1.35662 -0.41982,-0.63248 -0.58868,-1.25762 -0.59455,-2.20102 -0.008,-1.26111 0.16916,-1.69532 1.85667,-4.55478 1.13633,-1.92549 1.78988,-2.93142 2.14856,-3.30698 0.75434,-0.78985 1.78016,-1.27159 2.83482,-1.33127 0.98386,-0.0557 1.28861,0.0597 3.26924,1.23779 0.58944,0.3506 1.4333,0.85222 1.87526,1.1147 0.96476,0.573 1.18413,0.75713 1.5199,1.27578 0.40335,0.62303 0.60299,1.33871 0.60871,2.18217 0.008,1.17926 -0.15543,1.6152 -1.4438,3.85146 -1.57826,2.73944 -2.33161,3.87404 -2.86955,4.32171 -0.42741,0.35569 -1.14574,0.75009 -1.6614,0.91219 -0.43695,0.13735 -1.43924,0.17446 -1.8527,0.0686 z m 1.86116,-0.6663 c 1.09723,-0.39827 1.61226,-0.89978 2.61549,-2.54685 0.39603,-0.65018 0.72006,-1.19598 0.72006,-1.21287 0,-0.0169 -0.18839,-0.0274 -0.41864,-0.0233 -0.5766,0.0102 -0.91498,-0.10218 -1.28284,-0.42598 -0.37978,-0.3343 -0.5756,-0.69786 -0.6225,-1.15577 -0.0974,-0.95132 0.62034,-1.84866 1.56858,-1.96096 0.72287,-0.0856 1.54029,0.37417 1.80363,1.01453 0.0682,0.16577 0.15669,0.30151 0.1967,0.30165 0.0785,2.7e-4 0.56092,-0.93518 0.70799,-1.37288 0.0568,-0.16903 0.0884,-0.56462 0.0855,-1.07171 -0.004,-0.6765 -0.0293,-0.86743 -0.16118,-1.20568 -0.32531,-0.83439 -0.61575,-1.13624 -1.72935,-1.79726 -1.23356,-0.73223 -1.62706,-0.917 -2.09325,-0.98289 -0.94661,-0.13381 -2.2537,0.36884 -2.98816,1.1491 -0.39524,0.41988 -2.3132,3.55491 -3.19477,5.22205 -0.52028,0.9839 -0.64666,1.42118 -0.64559,2.23376 10e-4,0.86363 0.1999,1.50055 0.65469,2.09788 0.28889,0.37944 2.24363,1.58981 2.96154,1.83379 0.47956,0.16297 1.21431,0.12403 1.82207,-0.0966 z m -0.96296,-1.63622 c -0.36314,-0.22528 -0.43511,-0.74683 -0.14984,-1.08585 0.14869,-0.17672 0.2179,-0.20578 0.48562,-0.20396 0.33107,0.002 0.44959,0.0642 0.63345,0.33094 0.18921,0.27454 0.14757,0.58465 -0.1136,0.84582 -0.25989,0.25989 -0.55589,0.299 -0.85563,0.11305 z m -1.52893,-3.21257 c -1.00446,-0.51613 -0.93239,-1.91622 0.12266,-2.38293 0.82065,-0.36302 1.78243,0.29657 1.78243,1.22239 0,0.70265 -0.48922,1.23303 -1.21166,1.31359 -0.2693,0.03 -0.38819,0.004 -0.69343,-0.15305 z m 2.43735,-4.03943 c -0.44329,-0.17911 -0.56488,-0.78365 -0.23244,-1.15572 0.16781,-0.1878 0.23965,-0.21875 0.50786,-0.21875 0.26822,0 0.34006,0.031 0.50786,0.21875 0.31311,0.35042 0.24282,0.84485 -0.15453,1.08712 -0.23375,0.14252 -0.40071,0.16074 -0.62875,0.0686 z m -70.55403,9.12279 c 1.65457,-2.94319 4.52452,-6.07724 7.85976,-8.58305 2.09306,-1.57255 4.08818,-2.79441 6.57084,-4.02418 6.04866,-2.99616 12.56283,-4.78994 20.06112,-5.52415 9.22366,-0.90316 19.03827,0.23876 27.19469,3.16407 1.17067,0.41986 1.4817,0.59669 1.76931,1.00591 0.26649,0.37917 0.31925,0.98992 0.12341,1.42871 -0.26655,0.59726 -1.63932,2.84526 -1.84624,3.02334 -0.27234,0.23438 -0.85538,0.41224 -1.18081,0.3602 -0.13566,-0.0217 -0.74223,-0.23887 -1.34793,-0.48262 -7.95573,-3.20153 -18.09924,-4.6086 -27.4587,-3.80896 -6.10321,0.52143 -11.60429,1.76092 -16.64935,3.75138 -5.82237,2.29714 -10.40961,5.18299 -14.1173,8.88126 -1.11781,1.11497 -1.18034,1.16659 -0.9788,0.80809 z m 0.85334,-5.64417 c -0.17628,-0.17627 -0.19869,-0.23782 -0.16463,-0.45213 0.0858,-0.53967 0.72957,-0.80783 1.08534,-0.45206 0.3804,0.3804 0.058,1.10307 -0.49382,1.10676 -0.16029,0.001 -0.28012,-0.0558 -0.42689,-0.20257 z m 58.41672,-0.39629 c -0.0948,-0.0284 -0.56205,-0.21045 -1.03822,-0.4046 -2.75129,-1.12175 -6.55865,-2.15578 -10.23271,-2.77907 -1.45841,-0.24741 -1.60468,-0.29 -1.71705,-0.49997 -0.19238,-0.35946 -7e-4,-0.82085 0.3808,-0.9166 0.3206,-0.0805 3.76814,0.56447 5.98733,1.12006 3.08823,0.77316 6.81777,2.07011 7.23743,2.51682 0.40125,0.42711 -0.0512,1.13286 -0.61758,0.96336 z m -56.89926,-1.3056 c -0.12212,-0.12212 -0.16441,-0.23643 -0.16441,-0.4444 0,-0.26276 0.0381,-0.31906 0.61958,-0.91456 2.17929,-2.23199 4.35505,-3.92051 7.02778,-5.45399 1.67232,-0.95949 4.13989,-2.06521 4.60882,-2.06521 0.28478,0 0.60436,0.31408 0.60436,0.59395 0,0.34097 -0.23501,0.52334 -1.13869,0.88366 -3.55285,1.41658 -7.35662,3.98997 -10.28034,6.95502 -0.54923,0.55699 -0.62364,0.60994 -0.85707,0.60994 -0.18209,0 -0.30291,-0.0473 -0.42003,-0.16441 z m 41.36957,-2.55431 c -0.17277,-0.14538 -0.20608,-0.22117 -0.20608,-0.46888 0,-0.49042 0.36223,-0.72366 0.88202,-0.56793 0.20861,0.0625 0.28863,0.13164 0.36563,0.31595 0.27405,0.65588 -0.4902,1.18481 -1.04157,0.72086 z m -27.3338,-10.19129 c 0,-3.79702 0.0144,-4.45595 0.10291,-4.71107 0.0718,-0.20702 1.03807,-1.46969 3.19927,-4.18074 2.53478,-3.17967 3.15088,-3.91465 3.39691,-4.05241 l 0.30053,-0.16828 3.38259,-0.0217 3.3826,-0.0217 0.91083,-1.15045 c 4.57528,-5.77891 5.13085,-6.45379 5.43337,-6.60024 l 0.29994,-0.1452 5.47237,0.001 c 5.3192,0.001 5.47932,0.005 5.7205,0.13345 0.13647,0.0727 0.29585,0.17061 0.35418,0.21749 0.21882,0.17588 5.92525,7.40032 6.09879,7.72119 0.0996,0.1842 0.21371,0.51376 0.25352,0.73236 0.0486,0.26697 0.0724,2.52635 0.0724,6.8824 0,5.5884 -0.0133,6.48495 -0.0961,6.48495 -0.0529,0 -0.30446,-0.0438 -0.55913,-0.0974 -1.56156,-0.32849 -4.37174,-0.75415 -6.17694,-0.93564 -1.51026,-0.15183 -3.63775,-0.30555 -4.23661,-0.30611 l -0.51911,-4.9e-4 v -6.25218 -6.25218 l -0.98799,-1.2402 c -0.54339,-0.68211 -1.73479,-2.17892 -2.64756,-3.32624 -0.91277,-1.14733 -1.68139,-2.08455 -1.70805,-2.08272 -0.0267,0.002 -0.27452,0.29287 -0.55082,0.64676 -0.2763,0.35389 -1.3687,1.73138 -2.42754,3.0611 -1.05885,1.32971 -1.92543,2.43693 -1.92574,2.46049 -3e-4,0.0236 0.32347,0.0543 0.71951,0.0683 0.61335,0.0217 0.76398,0.0501 1.01648,0.19161 0.2405,0.13476 0.87048,0.88648 3.33885,3.98407 1.67333,2.09988 3.10731,3.95361 3.18663,4.11939 0.13821,0.28885 0.14422,0.3894 0.14422,2.41135 v 2.10994 l -1.90899,0.0414 c -3.22915,0.07 -6.24884,0.32775 -8.92363,0.76155 -0.34172,0.0554 -0.64391,0.10089 -0.67154,0.10103 -0.0276,1.5e-4 -0.0502,-1.2038 -0.0502,-2.67546 v -2.67573 l -2.48705,-3.13496 c -2.68524,-3.38476 -2.83853,-3.56629 -2.9281,-3.46754 -0.0323,0.0356 -0.70338,0.87822 -1.49138,1.87257 -0.788,0.99435 -2.05798,2.59187 -2.82217,3.55004 l -1.38945,1.74214 -4.3e-4,3.85464 -4.3e-4,3.85464 -1.08539,0.43221 c -0.59696,0.23771 -1.10938,0.44225 -1.13869,0.45453 -0.0293,0.0123 -0.0533,-1.96418 -0.0533,-4.39213 z m 47.89214,4.15778 c -1.26215,-0.59488 -2.75123,-1.20003 -3.84017,-1.56058 -0.55222,-0.18284 -0.67969,-0.252 -0.78964,-0.42839 -0.25254,-0.40516 0.0148,-0.91367 0.48036,-0.91367 0.58245,0 4.87852,1.74018 5.33838,2.16238 0.21358,0.19609 0.20683,0.60084 -0.0137,0.82137 -0.23147,0.23147 -0.56019,0.20878 -1.17523,-0.0811 z m -57.53853,-0.50803 c -0.0878,-0.15657 -0.30397,-0.42554 -0.48041,-0.59771 l -0.32079,-0.31304 0.35085,-0.36021 c 0.19298,-0.19811 0.41046,-0.47169 0.48331,-0.60796 0.0729,-0.13627 0.1482,-0.24716 0.16746,-0.24643 0.0193,7.3e-4 0.12543,0.15424 0.23595,0.34113 0.11052,0.18688 0.33078,0.45978 0.48946,0.60642 l 0.28851,0.26664 -0.28851,0.25532 c -0.15868,0.14042 -0.37894,0.40889 -0.48946,0.59659 -0.11052,0.18769 -0.218,0.34186 -0.23885,0.34259 -0.0208,7.4e-4 -0.10973,-0.12677 -0.19752,-0.28334 z m 16.02563,-4.0859 0.0176,-2.56206 1.69222,-0.0179 1.69223,-0.0179 -0.0177,2.16132 -0.0177,2.16133 -0.87077,0.21552 c -0.47892,0.11854 -1.20551,0.30692 -1.61465,0.41864 -0.40913,0.11171 -0.77873,0.20311 -0.82132,0.20311 -0.0576,0 -0.0729,-0.65782 -0.0599,-2.56206 z m 35.10654,2.29723 c -0.32888,-0.13853 -0.46528,-0.62508 -0.25814,-0.92082 0.13351,-0.19061 0.50196,-0.31028 0.7102,-0.23067 0.42773,0.16352 0.56234,0.67647 0.25748,0.98114 -0.18567,0.18556 -0.49635,0.26015 -0.70954,0.17035 z m -45.92275,-0.8909 c -0.33163,-0.64225 -0.76895,-1.17988 -1.26001,-1.54902 l -0.40084,-0.30131 0.29621,-0.2038 c 0.42435,-0.29196 0.90868,-0.86079 1.28721,-1.51177 0.18041,-0.31029 0.34698,-0.56546 0.37014,-0.56705 0.0232,-0.002 0.0815,0.0923 0.12971,0.20859 0.24982,0.60312 1.15612,1.70327 1.63669,1.98676 0.1294,0.0763 0.12712,0.0841 -0.067,0.22914 -0.62863,0.46962 -1.17208,1.12256 -1.53371,1.84271 -0.0971,0.19342 -0.18362,0.35153 -0.1922,0.35137 -0.009,-1.6e-4 -0.12839,-0.21868 -0.26622,-0.48562 z m 53.53478,-0.94006 c -0.0956,-0.19919 -0.37364,-0.55663 -0.64769,-0.83253 l -0.48024,-0.48349 0.2264,-0.13992 c 0.26522,-0.16391 0.67107,-0.65528 0.90418,-1.09471 0.0905,-0.17062 0.1824,-0.31023 0.20418,-0.31023 0.0218,0 0.076,0.08 0.12059,0.17776 0.1822,0.39989 0.58457,0.92213 0.88094,1.14339 l 0.31519,0.23531 -0.44835,0.44419 c -0.2466,0.24431 -0.5464,0.61751 -0.66622,0.82934 -0.11982,0.21183 -0.22318,0.38398 -0.22969,0.38255 -0.007,-0.001 -0.0872,-0.15968 -0.17929,-0.35166 z m -5.89519,-3.30716 c -0.15798,-0.28873 -0.41645,-0.69351 -0.57438,-0.89951 -0.32349,-0.42198 -0.9809,-1.04496 -1.2155,-1.15185 -0.0854,-0.0389 -0.14697,-0.093 -0.13681,-0.12022 0.0102,-0.0272 0.2039,-0.18554 0.43052,-0.35186 0.62718,-0.4603 1.42597,-1.50769 1.70205,-2.23177 l 0.0727,-0.19056 0.23601,0.46887 c 0.45405,0.90202 1.05635,1.63138 1.71339,2.07481 l 0.31817,0.21474 -0.48428,0.36232 c -0.54669,0.40901 -1.09697,1.08382 -1.50399,1.84433 l -0.27061,0.50565 z"
       id="path1" />
  </g>
</svg>
